<svg xmlns="http://www.w3.org/2000/svg" xmlns:xlink="http://www.w3.org/1999/xlink" width="121.945" height="129.025" viewBox="0 0 121.945 129.025">
  <defs>
    <clipPath id="clip-path">
      <path id="Tracé_1012" data-name="Tracé 1012" d="M3.161-109.965H14.3l-.377,1.8H.841l4.466-21.025H7.25Zm19.382,2.175a6.19,6.19,0,0,1-4.509-1.6A6.145,6.145,0,0,1,16.4-114a11.673,11.673,0,0,1,.522-3.422,12.271,12.271,0,0,1,1.523-3.219,7.5,7.5,0,0,1,2.74-2.451,8.146,8.146,0,0,1,3.944-.942,5.45,5.45,0,0,1,4.9,2.32q1.537,2.32.638,6.264H18.309a11.011,11.011,0,0,0-.058,1.247,4.948,4.948,0,0,0,1.16,3.523,4.359,4.359,0,0,0,3.335,1.232,6.162,6.162,0,0,0,3.35-.884,4.907,4.907,0,0,0,2.015-2.508h1.914a7.34,7.34,0,0,1-2.755,3.61A7.9,7.9,0,0,1,22.543-107.79ZM18.657-117.1H29.068a4.984,4.984,0,0,0-.754-3.871,3.94,3.94,0,0,0-3.335-1.436,5.816,5.816,0,0,0-4.045,1.479A7.76,7.76,0,0,0,18.657-117.1Z" fill="none"/>
    </clipPath>
    <clipPath id="clip-path-2">
      <path id="Tracé_1011" data-name="Tracé 1011" d="M-36,43H160V-158H-36Z" fill="none"/>
    </clipPath>
    <clipPath id="clip-path-3">
      <path id="Tracé_1015" data-name="Tracé 1015" d="M1.914-102.192H17.4v4.35H6.873v3.683h9.889v4.379H6.873v8.613H1.914ZM27.608-89.084H24.244v7.917H19.285v-21.025h8.091a24.725,24.725,0,0,1,3.1.174,12.551,12.551,0,0,1,2.6.609,6.222,6.222,0,0,1,2.059,1.16,5.005,5.005,0,0,1,1.305,1.87,6.924,6.924,0,0,1,.479,2.682A5.8,5.8,0,0,1,32.8-89.9l5.191,8.729H32.161Zm-3.364-8.932v4.756h3.277a7.4,7.4,0,0,0,3.074-.507,1.88,1.88,0,0,0,1.073-1.871,1.877,1.877,0,0,0-1.087-1.87,7.414,7.414,0,0,0-3.059-.507Zm15.95-4.176H56.318v4.35H45.153v3.683H55.709v4.379H45.153v4.234H56.318v4.379H40.194ZM72.645-81.167l-8.439-14.5v14.5H59.421v-21.025h6.032l8.439,14.5v-14.5h4.785v21.025ZM101.732-89a9.335,9.335,0,0,1-3.306,5.945,10.141,10.141,0,0,1-6.7,2.262,10.191,10.191,0,0,1-7.714-2.929A11.032,11.032,0,0,1,81.2-91.694a10.789,10.789,0,0,1,2.886-7.917,10.434,10.434,0,0,1,7.786-2.929,9.638,9.638,0,0,1,6.525,2.276,9.41,9.41,0,0,1,3.19,5.93H96.715a4.872,4.872,0,0,0-1.769-3.089A5.235,5.235,0,0,0,91.7-98.451a4.655,4.655,0,0,0-3.77,1.813,7.6,7.6,0,0,0-1.479,4.944,7.684,7.684,0,0,0,1.479,5.017,4.727,4.727,0,0,0,3.828,1.8,5.728,5.728,0,0,0,3.277-.957A4.6,4.6,0,0,0,96.86-89Zm21.054-13.195v21.025h-4.959V-89.78h-8.642v8.613h-4.959v-21.025h4.959v8.033h8.642v-8.033Z" fill="none"/>
    </clipPath>
    <clipPath id="clip-path-5">
      <path id="Tracé_1018" data-name="Tracé 1018" d="M8.845-75.192q12.3,0,12.3,10.5,0,10.527-12.3,10.527H1.914V-75.192Zm.087,4.176H6.873v12.673H8.932a17.5,17.5,0,0,0,2.146-.116,6.876,6.876,0,0,0,1.87-.522A4.446,4.446,0,0,0,14.5-60.054a5.088,5.088,0,0,0,1-1.841,8.886,8.886,0,0,0,.392-2.8,8.781,8.781,0,0,0-.392-2.77,5.247,5.247,0,0,0-1-1.856,4.205,4.205,0,0,0-1.552-1.073,7.2,7.2,0,0,0-1.87-.508A17.506,17.506,0,0,0,8.932-71.016Zm14.732-4.176H39.788v4.35H28.623v3.683H39.179v4.379H28.623v4.234H39.788v4.379H23.664Zm26.593,3.625a4.772,4.772,0,0,0-2.407.537,1.655,1.655,0,0,0-.928,1.493,1.7,1.7,0,0,0,.653,1.319,3.859,3.859,0,0,0,1.784.8l2.871.58q1.3.261,2.146.479a14.641,14.641,0,0,1,2,.71,6.908,6.908,0,0,1,1.841,1.088,5.21,5.21,0,0,1,1.189,1.6,4.962,4.962,0,0,1,.507,2.277,5.865,5.865,0,0,1-2.653,5.017A10.368,10.368,0,0,1,51.1-53.79,10.617,10.617,0,0,1,44.529-55.7a8.073,8.073,0,0,1-3.118-5.307h4.93q.812,3.219,4.872,3.219a5.433,5.433,0,0,0,2.537-.551,1.833,1.833,0,0,0,1.059-1.74,1.736,1.736,0,0,0-1-1.537,10.225,10.225,0,0,0-2.915-.986l-2.552-.522q-6.525-1.392-6.525-6.119a5.033,5.033,0,0,1,1.348-3.509,7.7,7.7,0,0,1,3.277-2.132,12.718,12.718,0,0,1,4.1-.653,10.42,10.42,0,0,1,5.8,1.581A6.73,6.73,0,0,1,59.305-69.1H54.4a3.224,3.224,0,0,0-1.465-1.812A5.13,5.13,0,0,0,50.257-71.567Zm17.11,17.4H62.408V-75.192h4.959ZM90.045-68.609H85.173a3.72,3.72,0,0,0-1.537-2.015,5.273,5.273,0,0,0-3.074-.826,4.949,4.949,0,0,0-3.9,1.74,7.3,7.3,0,0,0-1.522,4.959,7.731,7.731,0,0,0,1.493,5.075,4.952,4.952,0,0,0,4.017,1.8,6.16,6.16,0,0,0,3.32-.841,2.94,2.94,0,0,0,1.349-2.7v-.406H80.243v-4.06H90.277v11.716h-3.8l-.145-2.32q-2,2.7-6.438,2.7a9.39,9.39,0,0,1-7.322-2.958,11.465,11.465,0,0,1-2.683-8,10.562,10.562,0,0,1,2.958-7.859A10.566,10.566,0,0,1,80.62-75.54a10.4,10.4,0,0,1,6.148,1.8A8.125,8.125,0,0,1,90.045-68.609ZM107.1-54.167l-8.439-14.5v14.5H93.873V-75.192H99.9l8.439,14.5v-14.5h4.785v21.025Z" fill="none"/>
    </clipPath>
    <clipPath id="clip-path-7">
      <path id="Tracé_1021" data-name="Tracé 1021" d="M17.632-29.719l9.106-18.473h2.175l-10.7,21.025h-2.32L15.022-44.8,6.815-27.167H4.524L2.581-48.192H4.64L6.148-29.719l8.439-18.473h2.175ZM36.9-26.79a8.071,8.071,0,0,1-6.148-2.451,9.327,9.327,0,0,1-2.32-6.685,14.056,14.056,0,0,1,.754-4.524,14.284,14.284,0,0,1,2.132-4.06,10.208,10.208,0,0,1,3.552-2.944,10.385,10.385,0,0,1,4.814-1.116,8.071,8.071,0,0,1,6.148,2.45,9.327,9.327,0,0,1,2.32,6.685A14.056,14.056,0,0,1,47.4-34.91a14.284,14.284,0,0,1-2.132,4.06,10.207,10.207,0,0,1-3.552,2.944A10.385,10.385,0,0,1,36.9-26.79Zm.174-1.856A7.966,7.966,0,0,0,41.1-29.676a8.08,8.08,0,0,0,2.842-2.654,13.574,13.574,0,0,0,1.6-3.465,12.743,12.743,0,0,0,.551-3.668,7.71,7.71,0,0,0-1.755-5.206,6.026,6.026,0,0,0-4.828-2.044,7.966,7.966,0,0,0-4.031,1.029,8.08,8.08,0,0,0-2.842,2.653,13.574,13.574,0,0,0-1.595,3.465,12.744,12.744,0,0,0-.551,3.669,7.71,7.71,0,0,0,1.754,5.205A6.026,6.026,0,0,0,37.072-28.646Zm22.282-7.685q-1.073.087-2.2.087H53.235l-1.943,9.077H49.349l4.466-21.025h5.858a19.921,19.921,0,0,1,3.074.2,8.638,8.638,0,0,1,2.349.71,3.537,3.537,0,0,1,1.624,1.494,5,5,0,0,1,.551,2.465q0,5.365-5.974,6.67l2.842,9.483h-2.03ZM55.381-46.394l-1.769,8.323h3.567q1.392,0,2.451-.1a11.826,11.826,0,0,0,2.16-.421,5.2,5.2,0,0,0,1.8-.87,4.082,4.082,0,0,0,1.145-1.522,5.449,5.449,0,0,0,.45-2.306A2.429,2.429,0,0,0,63.7-45.756a10.774,10.774,0,0,0-4.147-.638ZM70.036-28.965H81.172l-.377,1.8H67.716l4.466-21.025h1.943ZM92.144-48.192q4.611,0,7.134,2.436T101.8-38.8a13.362,13.362,0,0,1-.7,4.335,11.39,11.39,0,0,1-2.088,3.7,9.549,9.549,0,0,1-3.741,2.625,14.019,14.019,0,0,1-5.394.972h-6.7l4.466-21.025Zm.2,1.769H89.215L85.5-28.936h4.669a11.076,11.076,0,0,0,4.307-.783,7.583,7.583,0,0,0,3-2.16,9.457,9.457,0,0,0,1.7-3.132,12.269,12.269,0,0,0,.565-3.785,8.014,8.014,0,0,0-1.87-5.51A6.984,6.984,0,0,0,92.347-46.423Z" fill="none"/>
    </clipPath>
    <clipPath id="clip-path-9">
      <path id="Tracé_1024" data-name="Tracé 1024" d="M9.889-.167,6.844-19.336,2.784-.167H.841L5.307-21.192H8.323L11.281-2.371l10.9-18.821h3.248L20.967-.167H19.024l4.06-19.169L11.948-.167ZM35.883-21.192h2.088L41.6-.167h-2l-.9-5.278h-10L25.646-.167H23.471ZM29.735-7.243h8.671L36.463-18.785ZM44.1-.167l4.466-21.025H54.54a10.633,10.633,0,0,1,5.568,1.2q1.943,1.2,1.943,4.191a6.2,6.2,0,0,1-2.784,5.655,13.7,13.7,0,0,1-7.424,1.769h-4.06L46.043-.167Zm6.032-19.227L48.16-10.172H51.9a17.745,17.745,0,0,0,3.132-.247,9.217,9.217,0,0,0,2.537-.841,4.115,4.115,0,0,0,1.8-1.74,5.719,5.719,0,0,0,.624-2.769,2.928,2.928,0,0,0-1.465-2.856,8.963,8.963,0,0,0-4.1-.768Z" fill="none"/>
    </clipPath>
  </defs>
  <g id="Composant_70_4" data-name="Composant 70 – 4" transform="translate(0 0)">
    <g id="Groupe_1288" data-name="Groupe 1288" transform="translate(-0.841 129.192)" clip-path="url(#clip-path)">
      <g id="Groupe_1287" data-name="Groupe 1287" clip-path="url(#clip-path-2)">
        <path id="Tracé_1010" data-name="Tracé 1010" d="M-4.159-102.79H35.995v-31.4H-4.159Z" fill="#1a1918"/>
      </g>
    </g>
    <g id="Groupe_1290" data-name="Groupe 1290" transform="translate(-0.841 129.192)" clip-path="url(#clip-path-3)">
      <g id="Groupe_1289" data-name="Groupe 1289" clip-path="url(#clip-path-2)">
        <path id="Tracé_1013" data-name="Tracé 1013" d="M-3.086-75.79H127.786v-31.75H-3.086Z" fill="#1a1918"/>
      </g>
    </g>
    <g id="Groupe_1292" data-name="Groupe 1292" transform="translate(-0.841 129.192)" clip-path="url(#clip-path-5)">
      <g id="Groupe_1291" data-name="Groupe 1291" clip-path="url(#clip-path-2)">
        <path id="Tracé_1016" data-name="Tracé 1016" d="M-3.086-48.79H118.129V-80.54H-3.086Z" fill="#1a1918"/>
      </g>
    </g>
    <g id="Groupe_1294" data-name="Groupe 1294" transform="translate(-0.841 129.192)" clip-path="url(#clip-path-7)">
      <g id="Groupe_1293" data-name="Groupe 1293" clip-path="url(#clip-path-2)">
        <path id="Tracé_1019" data-name="Tracé 1019" d="M-2.419-21.79H106.8V-53.569H-2.419Z" fill="#1a1918"/>
      </g>
    </g>
    <g id="Groupe_1296" data-name="Groupe 1296" transform="translate(-0.841 129.192)" clip-path="url(#clip-path-9)">
      <g id="Groupe_1295" data-name="Groupe 1295" clip-path="url(#clip-path-2)">
        <path id="Tracé_1022" data-name="Tracé 1022" d="M-4.159,4.833h71.21V-26.192H-4.159Z" fill="#1a1918"/>
      </g>
    </g>
  </g>
</svg>